<?xml version="1.0" encoding="UTF-8" standalone="no"?>
<!-- Created with Inkscape (http://www.inkscape.org/) -->

<svg
   xmlns:dc="http://purl.org/dc/elements/1.1/"
   xmlns:cc="http://creativecommons.org/ns#"
   xmlns:rdf="http://www.w3.org/1999/02/22-rdf-syntax-ns#"
   xmlns:svg="http://www.w3.org/2000/svg"
   xmlns="http://www.w3.org/2000/svg"
   version="1.1"
   width="64"
   height="64"
   id="svg2">
  <defs
     id="defs4" />
  <metadata
     id="metadata7">
    <rdf:RDF>
      <cc:Work
         rdf:about="">
        <dc:format>image/svg+xml</dc:format>
        <dc:type
           rdf:resource="http://purl.org/dc/dcmitype/StillImage" />
        <dc:title></dc:title>
      </cc:Work>
    </rdf:RDF>
  </metadata>
  <g
     transform="translate(0,-988.36218)"
     id="layer1">
    <rect
       width="60"
       height="52"
       rx="8"
       ry="8"
       x="2"
       y="994.36218"
       id="rect2987"
       style="fill:#ffffff;fill-opacity:1;stroke:#7d9f40;stroke-width:4;stroke-miterlimit:4;stroke-opacity:1;stroke-dasharray:none" />
    <path
       d="m 27,18 a 5,5 0 1 1 -10,0 5,5 0 1 1 10,0 z"
       transform="translate(-4,1011.3622)"
       id="path3005"
       style="fill:#7d9f40;fill-opacity:1;stroke:none" />
    <path
       d="m 27,18 a 5,5 0 1 1 -10,0 5,5 0 1 1 10,0 z"
       transform="translate(10,1011.3622)"
       id="path3007"
       style="fill:#7d9f40;fill-opacity:1;stroke:none" />
    <path
       d="m 27,18 a 5,5 0 1 1 -10,0 5,5 0 1 1 10,0 z"
       transform="translate(24,1011.3622)"
       id="path3009"
       style="fill:#7d9f40;fill-opacity:1;stroke:none" />
  </g>
</svg>
